<?xml version="1.0" encoding="UTF-8"?>
<svg version="1.1" xmlns="http://www.w3.org/2000/svg" width="534" height="534">
<path d="M0 0 C0.79925986 0.00234117 1.59851972 0.00468233 2.42199957 0.00709444 C3.26704066 0.005641 4.11208175 0.00418756 4.98273015 0.00269008 C7.85134385 -0.00099717 10.71990531 0.00252901 13.58851874 0.00595194 C15.65106956 0.0048012 17.71362019 0.00321399 19.77617037 0.0012247 C25.47277282 -0.00297504 31.16935866 -0.00087505 36.86596119 0.00221092 C42.99826387 0.00446219 49.13056357 0.00098677 55.26286566 -0.00176901 C66.59139502 -0.00597049 77.91991755 -0.00558974 89.24844673 -0.00285754 C99.71229903 -0.00034614 110.17614936 0.00031667 120.64000189 -0.00088018 C121.33296142 -0.00095657 122.02592094 -0.00103295 122.73987924 -0.00111165 C125.55253034 -0.00142297 128.36518144 -0.00174137 131.17783254 -0.00207142 C157.58531438 -0.00513331 183.99279282 -0.00235237 210.40027414 0.00302548 C233.88335294 0.00777141 257.36642632 0.00734679 280.84950507 0.00256449 C307.20739223 -0.00278527 333.56527638 -0.0049162 359.92316401 -0.00182325 C362.73081521 -0.00150251 365.53846641 -0.00118967 368.34611762 -0.00088018 C369.38315959 -0.00076157 369.38315959 -0.00076157 370.44115191 -0.00064055 C380.90074661 0.00049894 391.36033914 -0.0008371 401.81993353 -0.00335974 C413.70794697 -0.0062125 425.595954 -0.00542131 437.48396719 -0.00007899 C443.55585067 0.0025592 449.62772312 0.00356112 455.69960654 0.00027186 C461.24842817 -0.00268871 466.79722844 -0.00110233 472.34604812 0.00424941 C474.36284616 0.00537463 476.37964597 0.00478013 478.39644289 0.00237362 C481.11902827 -0.00062805 483.84153861 0.0024117 486.56411994 0.00709444 C487.36337979 0.00475328 488.16263965 0.00241211 488.98611951 0 C494.37890942 0.01878524 494.37890942 0.01878524 495.49305975 1.13293558 C495.59289543 3.78440287 495.62666905 6.4098747 495.6189009 9.0618754 C495.62035434 9.90691649 495.62180778 10.75195758 495.62330526 11.62260598 C495.62699251 14.49121968 495.62346632 17.35978114 495.6200434 20.22839457 C495.62119414 22.29094539 495.62278135 24.35349601 495.62477064 26.4160462 C495.62897038 32.11264865 495.62687039 37.80923449 495.62378442 43.50583702 C495.62153315 49.6381397 495.62500857 55.7704394 495.62776434 61.90274149 C495.63196582 73.23127084 495.63158508 84.55979337 495.62885288 95.88832256 C495.62634148 106.35217485 495.62567867 116.81602519 495.62687552 127.27987772 C495.6269901 128.31931701 495.6269901 128.31931701 495.62710699 129.37975507 C495.62741831 132.19240617 495.6277367 135.00505727 495.62806675 137.81770837 C495.63112865 164.22519021 495.62834771 190.63266865 495.62296986 217.04014997 C495.61822393 240.52322877 495.61864855 264.00630215 495.62343085 287.4893809 C495.6287806 313.84726806 495.63091154 340.20515221 495.62781858 366.56303984 C495.62749785 369.37069104 495.62718501 372.17834224 495.62687552 374.98599344 C495.62679644 375.67735476 495.62671737 376.36871608 495.62663589 377.08102774 C495.6254964 387.54062244 495.62683244 398.00021497 495.62935507 408.45980936 C495.63220784 420.3478228 495.63141665 432.23582983 495.62607433 444.12384301 C495.62343614 450.1957265 495.62243422 456.26759895 495.62572348 462.33948237 C495.62868405 467.888304 495.62709767 473.43710427 495.62174593 478.98592395 C495.62062071 481.00272199 495.62121521 483.0195218 495.62362172 485.03631872 C495.62662339 487.7589041 495.62358364 490.48141444 495.6189009 493.20399576 C495.62124206 494.00325562 495.62358323 494.80251548 495.62599534 495.62599534 C495.60721009 501.01878524 495.60721009 501.01878524 494.49305975 502.13293558 C491.84159247 502.23277126 489.21612064 502.26654488 486.56411994 502.25877672 C485.71907884 502.26023017 484.87403775 502.26168361 484.00338936 502.26318109 C481.13477566 502.26686833 478.2662142 502.26334215 475.39760077 502.25991923 C473.33504994 502.26106997 471.27249932 502.26265718 469.20994914 502.26464647 C463.51334669 502.26884621 457.81676085 502.26674622 452.12015831 502.26366025 C445.98785564 502.26140898 439.85555594 502.2648844 433.72325385 502.26764017 C422.39472449 502.27184165 411.06620196 502.27146091 399.73767278 502.26872871 C389.27382048 502.26621731 378.80997015 502.2655545 368.34611762 502.26675135 C367.65315809 502.26682773 366.96019856 502.26690412 366.24624027 502.26698282 C363.43358917 502.26729414 360.62093807 502.26761253 357.80828697 502.26794258 C331.40080513 502.27100448 304.99332668 502.26822354 278.58584537 502.26284569 C255.10276657 502.25809976 231.61969319 502.25852438 208.13661444 502.26330668 C181.77872728 502.26865643 155.42084313 502.27078737 129.0629555 502.26769441 C126.2553043 502.26737368 123.4476531 502.26706084 120.64000189 502.26675135 C119.94864058 502.26667227 119.25727926 502.26659319 118.5449676 502.26651172 C108.0853729 502.26537223 97.62578037 502.26670827 87.16618598 502.2692309 C75.27817254 502.27208367 63.39016551 502.27129248 51.50215232 502.26595016 C45.43026884 502.26331197 39.35839639 502.26231005 33.28651297 502.26559931 C27.73769134 502.26855988 22.18889106 502.2669735 16.64007139 502.26162176 C14.62327335 502.26049654 12.60647354 502.26109104 10.58967662 502.26349755 C7.86709124 502.26649922 5.1445809 502.26345947 2.42199957 502.25877672 C1.62273971 502.26111789 0.82347986 502.26345906 0 502.26587117 C-5.39278991 502.24708592 -5.39278991 502.24708592 -6.50694025 501.13293558 C-6.60677592 498.4814683 -6.64054954 495.85599647 -6.63278139 493.20399576 C-6.63423483 492.35895467 -6.63568827 491.51391358 -6.63718575 490.64326519 C-6.640873 487.77465149 -6.63734682 484.90609002 -6.63392389 482.0374766 C-6.63507463 479.97492577 -6.63666184 477.91237515 -6.63865113 475.84982497 C-6.64285087 470.15322252 -6.64075088 464.45663668 -6.63766491 458.76003414 C-6.63541364 452.62773147 -6.63888906 446.49543177 -6.64164484 440.36312968 C-6.64584631 429.03460032 -6.64546557 417.70607779 -6.64273337 406.37754861 C-6.64022197 395.91369631 -6.63955916 385.44984598 -6.64075601 374.98599344 C-6.6408324 374.29303392 -6.64090878 373.60007439 -6.64098748 372.88611609 C-6.6412988 370.07346499 -6.6416172 367.2608139 -6.64194724 364.4481628 C-6.64500914 338.04068095 -6.6422282 311.63320251 -6.63685035 285.2257212 C-6.63210442 261.7426424 -6.63252904 238.25956902 -6.63731134 214.77649027 C-6.6426611 188.41860311 -6.64479203 162.06071896 -6.64169908 135.70283133 C-6.64137834 132.89518013 -6.6410655 130.08752892 -6.64075601 127.27987772 C-6.64067693 126.58851641 -6.64059786 125.89715509 -6.64051638 125.18484343 C-6.63937689 114.72524873 -6.64071293 104.2656562 -6.64323556 93.8060618 C-6.64608833 81.91804837 -6.64529714 70.03004134 -6.63995482 58.14202815 C-6.63731663 52.07014467 -6.63631471 45.99827222 -6.63960397 39.9263888 C-6.64256454 34.37756717 -6.64097816 28.82876689 -6.63562642 23.27994722 C-6.6345012 21.26314918 -6.6350957 19.24634937 -6.63750221 17.22955245 C-6.64050388 14.50696707 -6.63746413 11.78445673 -6.63278139 9.0618754 C-6.63512255 8.26261554 -6.63746372 7.46335568 -6.63987583 6.63987583 C-6.61761909 0.25050255 -6.38937328 0.02225674 0 0 Z " fill="#B1BFC6" transform="translate(22.506940245628357,15.867064416408539)"/>
<path d="M0 0 C1.67465351 -0.01561823 3.34929163 -0.03297082 5.02391052 -0.05194092 C8.51459309 -0.08155429 12.00365652 -0.08080959 15.49438477 -0.05957031 C19.02673452 -0.04107081 22.55356814 -0.06858346 26.08520508 -0.14160156 C46.43835113 -0.5592459 62.89104111 -0.59782118 80.07070923 11.74894714 C84.27146338 14.5570225 88.92836231 16.41973861 93.55986023 18.39642334 C100.53745419 21.5403807 104.04074933 28.86548663 107.92541504 35.09957886 C110.09464293 38.55467427 112.35600682 41.94841215 114.60546875 45.3515625 C115.5033058 46.71959186 116.40043991 48.08808281 117.296875 49.45703125 C117.96323975 50.47434326 117.96323975 50.47434326 118.64306641 51.51220703 C119.31281494 52.53483643 119.31281494 52.53483643 119.99609375 53.578125 C128.07638915 65.92016995 128.07638915 65.92016995 136.24609375 78.203125 C134.92200297 81.11636315 133.46800451 83.25558745 131.26171875 85.56640625 C130.66351318 86.19812744 130.06530762 86.82984863 129.44897461 87.48071289 C128.80452393 88.15223389 128.16007324 88.82375488 127.49609375 89.515625 C126.12737893 90.95811965 124.75889453 92.40083296 123.390625 93.84375 C122.69662598 94.57271484 122.00262695 95.30167969 121.28759766 96.05273438 C118.23219697 99.27109951 115.20742589 102.51763 112.18359375 105.765625 C111.02614628 107.006608 109.86859409 108.24749333 108.7109375 109.48828125 C108.13972168 110.10074707 107.56850586 110.71321289 106.97998047 111.34423828 C104.65314659 113.83881912 102.32551114 116.33265122 99.99780273 118.82641602 C98.83188035 120.07553732 97.66602725 121.32472332 96.50024414 122.57397461 C93.55985906 125.72482763 90.61861867 128.87487469 87.67578125 132.0234375 C82.22312235 137.85884405 76.77917873 143.70136374 71.37109375 149.578125 C66.06104735 155.34587237 60.69129841 161.0562183 55.31347656 166.76074219 C49.1954226 173.25152861 43.10660367 179.76914571 37.02539062 186.29443359 C33.80898473 189.74474387 30.58983839 193.19249667 27.37109375 196.640625 C26.18618683 197.91014591 25.00128992 199.17967615 23.81640625 200.44921875 C22.96820313 201.35800781 22.12 202.26679688 21.24609375 203.203125 C17.34841769 199.95449228 13.63551517 196.7380373 10.30859375 192.890625 C6.14795922 188.17806956 1.87544396 183.58544365 -2.44140625 179.015625 C-3.83991925 177.53392543 -5.23835643 176.05215429 -6.63671875 174.5703125 C-7.32797852 173.83780273 -8.01923828 173.10529297 -8.73144531 172.35058594 C-11.77038693 169.12381982 -14.79443852 165.88328129 -17.81640625 162.640625 C-22.62051303 157.48688031 -27.43335248 152.3414902 -32.25390625 147.203125 C-41.43042607 137.41910865 -50.6042319 127.63278817 -59.69140625 117.765625 C-65.39194259 111.57644399 -71.14696128 105.43916209 -76.90625 99.3046875 C-82.87010772 92.95118497 -88.81109671 86.57630749 -94.75390625 80.203125 C-93.24299384 75.86903161 -90.95079509 72.28360082 -88.37109375 68.52734375 C-87.46493812 67.18858498 -86.55970436 65.84920188 -85.65527344 64.50927734 C-85.18053589 63.80736267 -84.70579834 63.105448 -84.2166748 62.38226318 C-81.73602795 58.68675561 -79.31337081 54.95374482 -76.88671875 51.22265625 C-75.88952614 49.69452882 -74.8921294 48.16653459 -73.89453125 46.63867188 C-72.37160235 44.30551114 -70.85020363 41.97141517 -69.33300781 39.63452148 C-67.83451833 37.32763637 -66.32993978 35.0248257 -64.82421875 32.72265625 C-64.37313751 32.02477493 -63.92205627 31.32689362 -63.45730591 30.60786438 C-59.9370995 25.24395929 -56.6730606 21.42562975 -50.859375 18.46875 C-49.90224609 17.97632813 -48.94511719 17.48390625 -47.95898438 16.9765625 C-46.96318359 16.47382813 -45.96738281 15.97109375 -44.94140625 15.453125 C-42.99695036 14.45920434 -41.05294804 13.46439591 -39.109375 12.46875 C-38.14001007 11.98398193 -37.17064514 11.49921387 -36.17190552 10.99975586 C-33.89691565 9.80393436 -31.66219345 8.52812417 -29.47616577 7.17651367 C-19.62270782 1.15456859 -11.40621265 -0.0452351 0 0 Z " fill="#108ACF" transform="translate(145.75390625,284.796875)"/>
<path d="M0 0 C4.12083803 -0.54010984 7.89486449 -0.73716547 12 0 C14.99375069 2.45038435 16.34523295 5.55182164 18 9 C19.13423511 11.06646932 20.27111455 13.13148868 21.41015625 15.1953125 C22.31512869 16.90550053 23.21997506 18.6157633 24.11920166 20.32897949 C25.75402513 23.44164952 27.40581153 26.54527495 29.05859375 29.6484375 C29.55794434 30.58641174 29.55794434 30.58641174 30.06738281 31.54333496 C33.15915471 37.33265894 36.37227683 43.04963876 39.625 48.75 C44.01579736 56.44880385 48.30056999 64.19512588 52.5 72 C56.74392402 79.88612616 61.07056776 87.71655055 65.5 95.5 C70.4950594 104.27737601 75.33915762 113.12660779 80.125 122.01953125 C84.34748888 129.84534598 88.70392257 137.58834037 93.10302734 145.31591797 C97.7759986 153.54789679 102.29595149 161.85861739 106.77539062 170.19726562 C107.28521484 171.14537109 107.79503906 172.09347656 108.3203125 173.0703125 C108.76648926 173.90320801 109.21266602 174.73610352 109.67236328 175.59423828 C111.05578471 178.10108542 112.51274124 180.55357107 114 183 C117.26407342 181.56358881 119.48909275 179.78441349 122.0390625 177.3046875 C123.15667969 176.23154297 123.15667969 176.23154297 124.296875 175.13671875 C125.85688221 173.62120839 127.41677693 172.10558222 128.9765625 170.58984375 C129.7190625 169.87699219 130.4615625 169.16414062 131.2265625 168.4296875 C131.90283691 167.77210449 132.57911133 167.11452148 133.27587891 166.43701172 C135 165 135 165 137 165 C137.33 164.01 137.66 163.02 138 162 C139.3203125 160.66796875 139.3203125 160.66796875 141.125 159.1875 C145.28535638 155.66088967 149.27484249 151.98179076 153.25 148.25 C157.81141262 143.97529509 162.38451569 139.71630729 167 135.5 C171.52736317 131.36208742 176.0205399 127.1896959 180.5 123 C190.23860865 113.89455549 200.07031937 104.89716959 210 96 C214.38711608 100.10223841 217.80872788 104.63476214 221.3125 109.5 C226.45748519 116.56680464 231.68251408 123.5620758 237 130.5 C242.6540634 137.88600585 248.21471015 145.33195586 253.7109375 152.8359375 C258.07277032 158.77671433 262.52054548 164.6475326 267 170.5 C272.65353395 177.88641792 278.21470194 185.33194466 283.7109375 192.8359375 C288.07277032 198.77671433 292.52054548 204.6475326 297 210.5 C302.65353395 217.88641792 308.21470194 225.33194466 313.7109375 232.8359375 C318.07277032 238.77671433 322.52054548 244.6475326 327 250.5 C332.65353395 257.88641792 338.21470194 265.33194466 343.7109375 272.8359375 C348.07277032 278.77671433 352.52054548 284.6475326 357 290.5 C362.65353395 297.88641792 368.21470194 305.33194466 373.7109375 312.8359375 C378.07277032 318.77671433 382.52054548 324.6475326 387 330.5 C392.65353395 337.88641792 398.21470194 345.33194466 403.7109375 352.8359375 C408.07277132 358.77671569 412.5206034 364.64748697 417 370.5 C422.74371634 378.0056476 428.40205903 385.56687643 433.9921875 393.1875 C437.63153609 398.14798198 441.29976679 403.08478317 445 408 C449.2908221 413.6997275 453.53023746 419.43500126 457.75 425.1875 C464.84915152 434.857982 472.1158687 444.39795433 479.4128418 453.91967773 C479.936604 454.60618408 480.46036621 455.29269043 481 456 C481.55703613 456.63268799 482.11407227 457.26537598 482.68798828 457.91723633 C484.40132998 460.63709454 484.34398371 462.44368721 484.29296875 465.640625 C484.28330078 466.71054687 484.27363281 467.78046875 484.26367188 468.8828125 C484.23853516 469.99398438 484.21339844 471.10515625 484.1875 472.25 C484.17396484 473.37664062 484.16042969 474.50328125 484.14648438 475.6640625 C484.11115645 478.44319264 484.0618252 481.22135363 484 484 C472.26504342 485.65257568 472.26504342 485.65257568 467.55859375 482.21875 C465.63834771 479.85761255 463.90502873 477.44096981 462.25048828 474.88720703 C460.34366463 472.00947434 458.2655372 469.26468047 456.203125 466.49731445 C454.39117497 464.06275715 452.59913878 461.61439481 450.80859375 459.1640625 C446.93822775 453.89185535 442.97685146 448.69212046 439 443.5 C433.3490469 436.11753258 427.78975628 428.67639831 422.29785156 421.17504883 C417.85518898 415.12220487 413.31621363 409.14752041 408.75 403.1875 C404.00430122 396.99122915 399.34541901 390.75935893 394.85742188 384.37451172 C390.45833196 378.15817008 385.80022886 372.14012094 381.16845703 366.09643555 C376.66912005 360.21670408 372.24459408 354.28914467 367.875 348.3125 C362.70563525 341.24505508 357.38241251 334.31629997 351.97705078 327.42822266 C348.02127749 322.36747226 344.23384148 317.2162748 340.53710938 311.96435547 C337.47675628 307.62802045 334.27591766 303.41730859 331.01708984 299.22729492 C327.38799485 294.54394158 323.87632148 289.77937225 320.375 285 C315.32340328 278.10912883 310.19352326 271.28450134 305 264.5 C299.34641356 257.11362251 293.78529736 249.66805438 288.2890625 242.1640625 C283.92722899 236.22328473 279.47941731 230.35249694 275 224.5 C268.04640616 215.41393716 261.24073657 206.22673578 254.47216797 197.00244141 C249.84399537 190.70720564 245.13149742 184.4770501 240.38671875 178.26953125 C232.52392785 167.9810061 224.73865702 157.64510531 217.0859375 147.19921875 C214.08863495 143.1091298 211.05129782 139.04991683 208 135 C204.97951817 136.3721104 202.69756697 137.96493902 200.23046875 140.17578125 C199.53356934 140.7992041 198.83666992 141.42262695 198.11865234 142.06494141 C194.82157413 145.0763083 191.55774827 148.12040634 188.3125 151.1875 C186.90402425 152.51342292 185.49516522 153.83893881 184.0859375 155.1640625 C183.39467773 155.81407227 182.70341797 156.46408203 181.99121094 157.13378906 C178.63672113 160.27769785 175.25415218 163.39081757 171.87109375 166.50390625 C167.6651785 170.37750227 163.48715249 174.28025925 159.3125 178.1875 C154.47274763 182.71504962 149.59015413 187.18521109 144.6484375 191.6015625 C141.27397709 194.65748978 137.94901053 197.76439303 134.625 200.875 C129.90972336 205.28602691 125.19023006 209.69180757 120.4375 214.0625 C119.52871094 214.89910156 118.61992187 215.73570312 117.68359375 216.59765625 C114.84366562 219.13994999 111.94165992 221.57669425 109 224 C105.91586083 221.1576075 103.9461166 218.4389141 102.00390625 214.73046875 C101.17656982 213.16848755 101.17656982 213.16848755 100.33251953 211.57495117 C99.74841309 210.45709229 99.16430664 209.3392334 98.5625 208.1875 C97.30273483 205.81143105 96.04141581 203.43627189 94.77734375 201.0625 C94.45894531 200.46330246 94.14054687 199.86410492 93.8125 199.24674988 C90.84341392 193.67294749 87.75310598 188.17316789 84.625 182.6875 C79.74846387 174.11808927 74.94384699 165.51149838 70.1875 156.875 C69.85269623 156.26717682 69.51789246 155.65935364 69.17294312 155.03311157 C67.46542869 151.93265854 65.75881588 148.83171047 64.05273438 145.73046875 C58.04677384 134.81391165 52.02541173 123.90583035 46 113 C45.66103699 112.38630554 45.32207397 111.77261108 44.97283936 111.14031982 C42.93219342 107.44609055 40.88941411 103.75305437 38.84378052 100.06158447 C37.91025925 98.37615881 36.97841203 96.68980626 36.04663086 95.00341797 C33.41667793 90.26249933 30.75637358 85.55412173 27.9453125 80.91796875 C24.78857458 75.70359794 21.88248564 70.36974108 19 65 C18.43780762 63.95682617 17.87561523 62.91365234 17.29638672 61.83886719 C14.90169872 57.39319469 12.51200259 52.94484874 10.12304688 48.49609375 C9.53458984 47.40167969 8.94613281 46.30726562 8.33984375 45.1796875 C7.49208374 43.57710083 7.49208374 43.57710083 6.62719727 41.94213867 C5.09442747 39.06499251 5.09442747 39.06499251 3.46459961 36.73950195 C-1.1642941 29.78427561 -0.56401544 22.4698591 -0.3125 14.4375 C-0.28736897 13.03324313 -0.26456432 11.6289426 -0.24414062 10.22460938 C-0.185561 6.81527533 -0.10356893 3.40821434 0 0 Z " fill="#0D88CF" transform="translate(25,25)"/>
<path d="M0 0 C3.2574919 1.38160774 4.90773314 2.81973126 6.9609375 5.68359375 C7.79431641 6.83118164 7.79431641 6.83118164 8.64453125 8.00195312 C9.21558594 8.80568359 9.78664062 9.60941406 10.375 10.4375 C11.4864766 11.97822725 12.59848738 13.51856926 13.7109375 15.05859375 C14.33436035 15.96746338 14.9577832 16.87633301 15.60009766 17.81274414 C17.50221176 20.33889873 19.38318137 22.47270202 21.56787109 24.73217773 C35.04024042 39.45760155 33.63640413 54.26068737 32.875 73.1875 C32.58625 83.355625 32.2975 93.52375 32 104 C7.58 104 -16.84 104 -42 104 C-42.226875 93.501875 -42.45375 83.00375 -42.6875 72.1875 C-42.78764404 68.89418701 -42.88778809 65.60087402 -42.9909668 62.20776367 C-43.02312184 59.5695487 -43.0511456 56.93127878 -43.07421875 54.29296875 C-43.10296585 53.62260086 -43.13171295 52.95223297 -43.16133118 52.2615509 C-43.4088201 46.17672777 -43.62445844 40.61600458 -39.6237793 35.73449707 C-36.96087246 32.89828208 -34.03231129 30.4357615 -31 28 C-29.61320797 26.7779387 -28.22938573 25.5524769 -26.8515625 24.3203125 C-25.90265137 23.50868652 -25.90265137 23.50868652 -24.93457031 22.68066406 C-20.54585104 18.86795035 -16.38958929 14.79280297 -12.1796875 10.78515625 C-8.22632833 7.03949168 -4.2307974 3.43001556 0 0 Z " fill="#FEFEFE" transform="translate(231,159)"/>
<path d="M0 0 C24.42 0 48.84 0 74 0 C74.309375 10.43625 74.61875 20.8725 74.9375 31.625 C75.07406006 34.89100098 75.21062012 38.15700195 75.35131836 41.52197266 C75.88328564 63.45690868 75.88328564 63.45690868 70.77001953 70.05175781 C67.75369411 73.15151826 64.47522576 75.60536506 60.79473877 77.86198425 C58.26664774 79.46500719 56.16355523 81.4421153 54 83.5 C53.23945313 84.17933594 52.47890625 84.85867187 51.6953125 85.55859375 C45.72794653 90.96381654 39.87319398 96.49285078 34 102 C30.27451037 100.75817012 30.0957213 99.85851468 28.3203125 96.4609375 C27.80984375 95.49873291 27.299375 94.53652832 26.7734375 93.54516602 C26.22945312 92.49901123 25.68546875 91.45285645 25.125 90.375 C23.96284234 88.18258297 22.79872622 85.99120314 21.6328125 83.80078125 C21.03500977 82.67494629 20.43720703 81.54911133 19.82128906 80.38916016 C16.96160353 75.06769172 13.98717119 69.81317747 11 64.5625 C10.47293457 63.63550293 9.94586914 62.70850586 9.40283203 61.75341797 C8.45457268 60.08570585 7.50537032 58.41852908 6.5546875 56.75219727 C5.78511719 55.38985962 5.78511719 55.38985962 5 54 C4.5793074 53.35916977 4.15861481 52.71833954 3.72517395 52.05809021 C-0.04125598 46.01638851 -0.68281718 41.31648088 -0.48828125 34.27734375 C-0.48324585 33.40178833 -0.47821045 32.52623291 -0.47302246 31.62414551 C-0.44712373 28.39492421 -0.377319 25.16617457 -0.3125 21.9375 C-0.209375 14.698125 -0.10625 7.45875 0 0 Z " fill="#FEFEFE" transform="translate(107,107)"/>
<path d="M0 0 C1.00821808 -0.03154175 1.00821808 -0.03154175 2.0368042 -0.0637207 C8.32037308 -0.24868785 14.6058513 -0.35342785 20.89151859 -0.4358654 C25.09747348 -0.49185765 29.29947503 -0.57192209 33.50341797 -0.71582031 C56.4037781 -1.48003487 72.01894492 0.17318027 91.46850586 13.31982422 C93.01907497 14.30061656 94.57347939 15.27538947 96.1328125 16.2421875 C97.23359131 16.92780762 98.33437012 17.61342773 99.46850586 18.31982422 C98.15746551 21.01487402 96.86383404 23.22762403 94.89428711 25.49169922 C94.3909082 26.07435547 93.8875293 26.65701172 93.36889648 27.25732422 C92.84489258 27.85544922 92.32088867 28.45357422 91.78100586 29.06982422 C91.27633789 29.65248047 90.77166992 30.23513672 90.25170898 30.83544922 C89.23627825 32.00621133 88.21332749 33.17050091 87.18232727 34.32757568 C86.07019506 35.6203847 84.9996872 36.9506539 83.98246765 38.31939697 C79.4266545 44.20358221 75.34722285 45.96652847 68.18725586 47.50732422 C67.21494019 47.74016113 66.24262451 47.97299805 65.24084473 48.21289062 C63.19676755 48.6968609 61.14930134 49.16671522 59.09887695 49.62304688 C55.97096311 50.31927727 52.85473313 51.05560438 49.73803711 51.80029297 C47.74249216 52.26748705 45.74641359 52.73240897 43.74975586 53.19482422 C42.82352417 53.41033936 41.89729248 53.62585449 40.94299316 53.84790039 C33.23630893 55.55468109 26.99100068 55.6821657 19.27709961 53.67529297 C18.27635155 53.41961296 18.27635155 53.41961296 17.25538635 53.1587677 C15.13680836 52.61614083 13.02135575 52.06238854 10.90600586 51.50732422 C8.82345103 50.96707885 6.74029371 50.42932924 4.65635681 49.8944397 C3.28038143 49.54048772 1.90533862 49.18289008 0.53126526 48.82162476 C-2.79127335 47.96027457 -6.09019438 47.19146647 -9.47509766 46.6171875 C-20.6171245 44.66208679 -20.6171245 44.66208679 -24.21777344 39.63476562 C-24.58942627 39.03583496 -24.9610791 38.4369043 -25.34399414 37.81982422 C-26.22014901 36.56620589 -27.09777682 35.31361582 -27.97680664 34.06201172 C-28.39736328 33.43649414 -28.81791992 32.81097656 -29.2512207 32.16650391 C-31.24842041 29.28572232 -33.47424572 26.63712372 -35.71899414 23.94482422 C-36.82307617 22.60291016 -36.82307617 22.60291016 -37.94946289 21.23388672 C-38.4715332 20.60224609 -38.99360352 19.97060547 -39.53149414 19.31982422 C-36.88308194 16.25003375 -33.74040035 14.66481106 -30.18383789 12.78076172 C-29.26508629 12.29127548 -29.26508629 12.29127548 -28.32777405 11.79190063 C-26.37751784 10.75441759 -24.42334495 9.72456957 -22.46899414 8.69482422 C-21.15037249 7.99479721 -19.8320101 7.29428159 -18.51391602 6.59326172 C-6.47224697 0.1967219 -6.47224697 0.1967219 0 0 Z " fill="#FDFEFE" transform="translate(136.531494140625,292.68017578125)"/>
<path d="M0 0 C24.42 0 48.84 0 74 0 C74 24.42 74 48.84 74 74 C49.58 74 25.16 74 0 74 C0 49.58 0 25.16 0 0 Z " fill="#FEFEFE" transform="translate(353,435)"/>
<path d="M0 0 C24.42 0 48.84 0 74 0 C74 24.42 74 48.84 74 74 C49.58 74 25.16 74 0 74 C0 49.58 0 25.16 0 0 Z " fill="#FEFEFE" transform="translate(271,435)"/>
<path d="M0 0 C24.42 0 48.84 0 74 0 C74 24.42 74 48.84 74 74 C49.58 74 25.16 74 0 74 C0 49.58 0 25.16 0 0 Z " fill="#FEFEFE" transform="translate(25,435)"/>
<path d="M0 0 C24.42 0 48.84 0 74 0 C74 24.42 74 48.84 74 74 C49.58 74 25.16 74 0 74 C0 49.58 0 25.16 0 0 Z " fill="#FEFEFE" transform="translate(435,271)"/>
<path d="M0 0 C24.42 0 48.84 0 74 0 C74 24.42 74 48.84 74 74 C49.58 74 25.16 74 0 74 C0 49.58 0 25.16 0 0 Z " fill="#FEFEFE" transform="translate(435,189)"/>
<path d="M0 0 C24.42 0 48.84 0 74 0 C74 24.42 74 48.84 74 74 C49.58 74 25.16 74 0 74 C0 49.58 0 25.16 0 0 Z " fill="#FEFEFE" transform="translate(353,189)"/>
<path d="M0 0 C24.42 0 48.84 0 74 0 C74 24.42 74 48.84 74 74 C49.58 74 25.16 74 0 74 C0 49.58 0 25.16 0 0 Z " fill="#FEFEFE" transform="translate(25,189)"/>
<path d="M0 0 C24.42 0 48.84 0 74 0 C74 24.42 74 48.84 74 74 C49.58 74 25.16 74 0 74 C0 49.58 0 25.16 0 0 Z " fill="#FEFEFE" transform="translate(435,107)"/>
<path d="M0 0 C24.42 0 48.84 0 74 0 C74 24.42 74 48.84 74 74 C49.58 74 25.16 74 0 74 C0 49.58 0 25.16 0 0 Z " fill="#FEFEFE" transform="translate(353,107)"/>
<path d="M0 0 C24.42 0 48.84 0 74 0 C74 24.42 74 48.84 74 74 C49.58 74 25.16 74 0 74 C0 49.58 0 25.16 0 0 Z " fill="#FEFEFE" transform="translate(435,25)"/>
<path d="M0 0 C24.42 0 48.84 0 74 0 C74 24.42 74 48.84 74 74 C49.58 74 25.16 74 0 74 C0 49.58 0 25.16 0 0 Z " fill="#FEFEFE" transform="translate(353,25)"/>
<path d="M0 0 C24.42 0 48.84 0 74 0 C74 24.42 74 48.84 74 74 C49.58 74 25.16 74 0 74 C0 49.58 0 25.16 0 0 Z " fill="#FEFEFE" transform="translate(271,25)"/>
<path d="M0 0 C24.42 0 48.84 0 74 0 C74 24.42 74 48.84 74 74 C49.58 74 25.16 74 0 74 C0 49.58 0 25.16 0 0 Z " fill="#FEFEFE" transform="translate(189,25)"/>
<path d="M0 0 C24.42 0 48.84 0 74 0 C74 24.42 74 48.84 74 74 C49.58 74 25.16 74 0 74 C0 49.58 0 25.16 0 0 Z " fill="#FEFEFE" transform="translate(107,25)"/>
<path d="M0 0 C24.42 0 48.84 0 74 0 C74 24.42 74 48.84 74 74 C63.460625 74.2475 52.92125 74.495 42.0625 74.75 C38.750979 74.85924805 35.43945801 74.96849609 32.02758789 75.08105469 C29.3843366 75.11612217 26.74102023 75.14669611 24.09765625 75.171875 C23.42206161 75.20323547 22.74646698 75.23459595 22.05039978 75.26690674 C15.9428407 75.53591412 11.06604767 75.58813397 6.09458923 71.7666626 C-0.4390254 64.0865751 -1.23166501 57.05151731 -0.87890625 47.265625 C-0.86984253 46.05890137 -0.86077881 44.85217773 -0.85144043 43.60888672 C-0.80479614 39.15512726 -0.67914524 34.70247604 -0.5625 30.25 C-0.376875 20.2675 -0.19125 10.285 0 0 Z " fill="#FEFEFE" transform="translate(271,107)"/>
<path d="M0 0 C23.1 0 46.2 0 70 0 C70 24.42 70 48.84 70 74 C45.58 74 21.16 74 -4 74 C-4.20625 65.811875 -4.4125 57.62375 -4.625 49.1875 C-4.71604004 46.62508545 -4.80708008 44.0626709 -4.90087891 41.42260742 C-5.27200606 23.18078636 -5.27200606 23.18078636 -0.37802124 17.27888489 C1.60549121 15.29744416 3.68962449 13.58496448 6 12 C4.39375491 7.58282601 2.41567704 4.22743482 0 0 Z " fill="#FEFEFE" transform="translate(275,353)"/>
<path d="M0 0 C1.3768396 0.00906372 1.3768396 0.00906372 2.78149414 0.01831055 C6.19072837 0.0495621 9.59931841 0.13333125 13.0078125 0.2109375 C24.4546875 0.3965625 24.4546875 0.3965625 36.1328125 0.5859375 C36.1328125 25.0059375 36.1328125 49.4259375 36.1328125 74.5859375 C11.7128125 74.5859375 -12.7071875 74.5859375 -37.8671875 74.5859375 C-38.0115625 67.3259375 -38.1559375 60.0659375 -38.3046875 52.5859375 C-38.36841553 50.30945313 -38.43214355 48.03296875 -38.49780273 45.6875 C-38.51826682 43.86200845 -38.53609969 42.03648471 -38.55078125 40.2109375 C-38.58659302 39.28023438 -38.62240479 38.34953125 -38.65930176 37.390625 C-38.66521928 31.00646671 -37.22460997 27.83583944 -32.71620178 23.30419922 C-32.10602707 22.73717285 -31.49585236 22.17014648 -30.8671875 21.5859375 C-29.6987637 20.42103061 -28.53184014 19.25461472 -27.3671875 18.0859375 C-26.79097656 17.52003906 -26.21476563 16.95414062 -25.62109375 16.37109375 C-23.20292556 13.90984016 -20.96885247 11.30685403 -18.73828125 8.67578125 C-18.12082031 7.98613281 -17.50335938 7.29648437 -16.8671875 6.5859375 C-16.06273193 5.56491943 -15.25827637 4.54390137 -14.42944336 3.49194336 C-10.19509184 -0.69681707 -5.66105317 -0.17657481 0 0 Z " fill="#FEFEFE" transform="translate(226.8671875,434.4140625)"/>
<path d="M0 0 C10.951875 -0.556875 10.951875 -0.556875 22.125 -1.125 C24.39906738 -1.28887207 26.67313477 -1.45274414 29.01611328 -1.62158203 C43.02444885 -2.20604226 43.02444885 -2.20604226 48.28070068 1.69088745 C52.45289791 5.95455908 55.58829 10.81843997 58.66461182 15.90478516 C60.3035598 18.47628322 62.22038233 20.51997904 64.4296875 22.61328125 C79.74273198 39.05483808 74 48.19563747 74 74 C49.58 74 25.16 74 0 74 C0 49.58 0 25.16 0 0 Z " fill="#FEFEFE" transform="translate(271,271)"/>
<path d="M0 0 C24.42 0 48.84 0 74 0 C74 24.42 74 48.84 74 74 C66.925625 74.226875 59.85125 74.45375 52.5625 74.6875 C50.34732666 74.78764404 48.13215332 74.88778809 45.84985352 74.9909668 C31.99829618 75.36197067 31.99829618 75.36197067 26.83203125 71.84082031 C24.50013845 69.01617635 22.75630778 66.20907216 21 63 C19.79197299 61.34439063 18.56105455 59.70516987 17.3046875 58.0859375 C16.15838943 56.51786384 15.01511622 54.94757409 13.875 53.375 C12.72780112 51.79857705 11.57936559 50.22305329 10.4296875 48.6484375 C9.93710449 47.96958496 9.44452148 47.29073242 8.93701172 46.59130859 C6.01594951 42.6835503 2.99532428 38.85113122 0 35 C0 23.45 0 11.9 0 0 Z " fill="#FEFEFE" transform="translate(435,353)"/>
<path d="M0 0 C24.42 0 48.84 0 74 0 C74 10.23 74 20.46 74 31 C70.37 32.98 66.74 34.96 63 37 C60.91173154 39.53924253 59.54419078 41.43259609 58.0625 44.25 C57.25466286 45.65688303 56.44330794 47.06175053 55.62890625 48.46484375 C55.21141113 49.19815918 54.79391602 49.93147461 54.36376953 50.68701172 C51.91444738 54.84112523 49.19775187 58.8170902 46.5 62.8125 C45.48953723 64.31897949 44.47911738 65.82548778 43.46875 67.33203125 C43.04013672 67.96858643 42.61152344 68.6051416 42.16992188 69.26098633 C41.10908943 70.83784558 40.05420048 72.41869929 39 74 C36.0223933 74.2663692 33.24944773 74.34787722 30.2734375 74.29296875 C29.50878174 74.28994751 28.74412598 74.28692627 27.95629883 74.28381348 C25.09572889 74.26809917 22.23535111 74.22621513 19.375 74.1875 C12.98125 74.125625 6.5875 74.06375 0 74 C0 49.58 0 25.16 0 0 Z " fill="#FEFEFE" transform="translate(25,271)"/>
<path d="M0 0 C8.25 0 16.5 0 25 0 C29.78260024 5.46582885 34.209962 10.83120804 38.4375 16.6875 C42.91763623 22.83658733 47.45200708 28.93498767 52.08618164 34.96899414 C54.76731753 38.46175877 57.42910686 41.96895524 60.08691406 45.47949219 C61.3437572 47.13539425 62.60597623 48.78723228 63.87402344 50.43457031 C65.60443683 52.69093953 67.30534889 54.9667076 69 57.25 C69.51062988 57.90436035 70.02125977 58.5587207 70.54736328 59.23291016 C74.60094985 64.79573515 74 66.25357989 74 74 C49.58 74 25.16 74 0 74 C0 49.58 0 25.16 0 0 Z " fill="#FDFEFE" transform="translate(353,353)"/>
<path d="M0 0 C24.42 0 48.84 0 74 0 C74 24.42 74 48.84 74 74 C50 74 50 74 44.6484375 70.07421875 C42.9140625 67.5 42.9140625 67.5 41.375 64.6875 C40.1122146 62.74333664 38.84918903 60.79932926 37.5859375 58.85546875 C36.9887793 57.86981934 36.39162109 56.88416992 35.77636719 55.86865234 C33.1034921 51.55223092 30.05755677 47.5479843 27 43.5 C25.86560009 41.95559181 24.73280533 40.41000342 23.6015625 38.86328125 C18.92849006 32.52050722 14.13239333 26.27105889 9.328125 20.02734375 C7.53875961 17.69464879 5.76868485 15.34837858 4 13 C3.5555957 12.4426416 3.11119141 11.8852832 2.65332031 11.31103516 C-0.53119262 7.08408964 0 6.01399798 0 0 Z " fill="#FDFEFE" transform="translate(353,271)"/>
<path d="M0 0 C10.89 0 21.78 0 33 0 C31.35 2.97 29.7 5.94 28 9 C27.58075383 12.88023346 27.58075383 12.88023346 29.50390625 14.859375 C30.18324219 15.48328125 30.86257812 16.1071875 31.5625 16.75 C34.3794016 19.42308092 37.0396146 22.10957732 39.5625 25.0625 C42.32242187 28.27302136 45.23091015 31.25357247 48.25 34.21875 C50.70634849 36.71896185 52.96309368 39.37680516 55.25 42.03125 C57.47431484 44.5336042 59.84652166 46.85829604 62.234375 49.203125 C64.75248047 51.76579871 67.08622705 54.47456431 69.421875 57.203125 C70.8804391 58.8638663 72.43707471 60.43707471 74 62 C74 65.96 74 69.92 74 74 C49.58 74 25.16 74 0 74 C0 49.58 0 25.16 0 0 Z " fill="#FEFEFE" transform="translate(25,353)"/>
<path d="M0 0 C9.57 0 19.14 0 29 0 C34.62567756 9.00108409 34.62567756 9.00108409 37.20703125 13.66796875 C37.78598145 14.71218994 38.36493164 15.75641113 38.96142578 16.83227539 C39.87770752 18.49311157 39.87770752 18.49311157 40.8125 20.1875 C41.46322855 21.36393409 42.11411076 22.5402832 42.76513672 23.71655273 C44.1355229 26.19348709 45.50448252 28.67120309 46.87255859 31.14941406 C48.66849077 34.40172316 50.4694026 37.65124471 52.2719574 40.89988708 C53.71039652 43.49292295 55.14695074 46.08699991 56.58309937 48.68130493 C57.26837799 49.91860408 57.95425397 51.15557261 58.64077759 52.3921814 C59.60887261 54.13664791 60.57400445 55.88275781 61.5390625 57.62890625 C62.08771973 58.61963135 62.63637695 59.61035645 63.20166016 60.63110352 C65.55593834 65.04145984 67.76420624 69.52841248 70 74 C46.9 74 23.8 74 0 74 C0 49.58 0 25.16 0 0 Z " fill="#FEFEFE" transform="translate(25,107)"/>
<path d="M0 0 C10 0 10 0 13.79296875 2.78125 C14.9516092 3.99551314 16.08273592 5.23652108 17.1875 6.5 C18.08674194 7.46305054 18.08674194 7.46305054 19.00415039 8.44555664 C20.69872686 10.27305917 22.35474484 12.12812421 24 14 C25.09054688 15.22009766 25.09054688 15.22009766 26.203125 16.46484375 C27.31191858 17.72597158 28.41066642 18.99604983 29.49609375 20.27734375 C31.62596759 22.71701742 33.94057869 24.95056835 36.25 27.21875 C38.70634849 29.71896185 40.96309368 32.37680516 43.25 35.03125 C45.47064871 37.5294798 47.83859545 39.85059372 50.22265625 42.19140625 C53.30153988 45.3244241 56.14730735 48.66174265 59 52 C63.70317631 48.1606724 67.72455708 44.19974556 71.6171875 39.5390625 C72.07351562 39.03117187 72.52984375 38.52328125 73 38 C73.33 38 73.66 38 74 38 C74 49.88 74 61.76 74 74 C49.58 74 25.16 74 0 74 C0 49.58 0 25.16 0 0 Z " fill="#FDFEFE" transform="translate(107,435)"/>
<path d="M0 0 C20.13 0 40.26 0 61 0 C61 24.42 61 48.84 61 74 C54.07 74 47.14 74 40 74 C31.16212756 58.45805652 22.46207712 42.84545953 13.85125732 27.17700195 C11.75885203 23.37186222 9.65306969 19.57442501 7.5390625 15.78125 C7.02102051 14.84885498 6.50297852 13.91645996 5.96923828 12.95581055 C5.01515042 11.23930851 4.05796871 9.52452115 3.09716797 7.81176758 C2.47672607 6.69257935 2.47672607 6.69257935 1.84375 5.55078125 C1.30524414 4.58652222 1.30524414 4.58652222 0.75585938 3.6027832 C0 2 0 2 0 0 Z " fill="#FDFEFE" transform="translate(38,25)"/>
<path d="M0 0 C2.87154652 2.87154652 4.36229999 5.17988521 6.29296875 8.70703125 C7.23354126 10.41475708 7.23354126 10.41475708 8.19311523 12.15698242 C8.85794421 13.3754697 9.52273858 14.59397587 10.1875 15.8125 C11.20073651 17.65641914 12.21579822 19.49932538 13.23097229 21.34217834 C13.89760166 22.55258119 14.56365201 23.76330312 15.22911072 24.97434998 C18.74082783 31.36190156 22.34975585 37.69079207 26 44 C29.89878432 41.8670949 32.73857869 39.44806999 35.8125 36.25 C39.35725548 32.57224391 43.0435045 29.18208259 46.90112305 25.84277344 C50.34907403 22.81553905 53.66932536 19.6550336 57 16.5 C72.30721649 2 72.30721649 2 74 2 C74 20.81 74 39.62 74 59 C49.58 59 25.16 59 0 59 C0 39.53 0 20.06 0 0 Z " fill="#FCFDFE" transform="translate(107,204)"/>
<path d="M0 0 C24.42 0 48.84 0 74 0 C74 16.5 74 33 74 50 C70.82549888 46.82549888 68.29175399 44.26066348 65.73046875 40.7421875 C64.86736084 39.56329956 64.86736084 39.56329956 63.98681641 38.3605957 C63.39304199 37.54034912 62.79926758 36.72010254 62.1875 35.875 C61.57310059 35.03348389 60.95870117 34.19196777 60.32568359 33.32495117 C58.54639538 30.88622451 56.77271824 28.44350446 55 26 C54.10325831 24.76924428 53.20617334 23.53873853 52.30859375 22.30859375 C50.53511613 19.87521748 48.76515202 17.43941816 47 15 C40.97498238 19.09148761 35.96059614 23.89167237 30.90625 29.12109375 C28.11046302 31.96003784 25.11799619 34.54124398 22.10546875 37.14624023 C17.83161404 40.90915522 13.75179423 44.88698231 9.6484375 48.83398438 C8.97554687 49.47271484 8.30265625 50.11144531 7.609375 50.76953125 C7.01092773 51.34292236 6.41248047 51.91631348 5.79589844 52.50708008 C4 54 4 54 0 56 C0 37.52 0 19.04 0 0 Z " fill="#FCFDFE" transform="translate(189,107)"/>
<path d="M0 0 C5 0 5 0 6.81420898 1.6262207 C7.64674194 2.76450317 7.64674194 2.76450317 8.49609375 3.92578125 C9.12966797 4.77527344 9.76324219 5.62476563 10.41601562 6.5 C11.08310547 7.428125 11.75019531 8.35625 12.4375 9.3125 C13.14197266 10.26511719 13.84644531 11.21773438 14.57226562 12.19921875 C16.7296612 15.12226684 18.86572052 18.06004879 21 21 C22.76684096 23.4050092 24.53843367 25.80645801 26.31030273 28.20776367 C27.44087675 29.74149571 28.5692813 31.27682922 29.69555664 32.8137207 C34.18353478 38.93137239 38.76601251 44.97315029 43.375 51 C52.24568786 62.61320886 52.24568786 62.61320886 56 67.6875 C56.598125 68.49574219 57.19625 69.30398438 57.8125 70.13671875 C59 72 59 72 59 74 C39.53 74 20.06 74 0 74 C0 49.58 0 25.16 0 0 Z " fill="#FEFEFE" transform="translate(435,435)"/>
<path d="M0 0 C19.14 0 38.28 0 58 0 C58 24.42 58 48.84 58 74 C53.8341234 72.95853085 53.43565735 72.79126029 51.0390625 69.6328125 C50.49266113 68.92213623 49.94625977 68.21145996 49.38330078 67.47924805 C48.80306152 66.70234619 48.22282227 65.92544434 47.625 65.125 C47.00995605 64.31780518 46.39491211 63.51061035 45.76123047 62.67895508 C40.90606564 56.28143779 36.14333372 49.81386754 31.40185547 43.33178711 C26.92848638 37.22341469 22.35516669 31.19694489 17.75 25.1875 C13.08834974 19.0967021 8.46476867 12.98706204 4 6.75 C3.37689941 5.88217896 3.37689941 5.88217896 2.74121094 4.99682617 C0 1.1290327 0 1.1290327 0 0 Z " fill="#FDFDFE" transform="translate(287,189)"/>
<path d="M0 0 C24.42 0 48.84 0 74 0 C74 20.79 74 41.58 74 63 C71.03349615 60.03349615 69.21656868 58.02947653 67.125 54.59375 C66.61453125 53.76746094 66.1040625 52.94117188 65.578125 52.08984375 C64.52604167 50.36328125 63.47395833 48.63671875 62.421875 46.91015625 C61.91140625 46.08386719 61.4009375 45.25757813 60.875 44.40625 C60.19050781 43.28186523 60.19050781 43.28186523 59.4921875 42.13476562 C56.28161433 37.54162888 52.73674432 35.09920069 47.80078125 32.50390625 C47.20629684 32.18848373 46.61181244 31.87306122 45.99931335 31.54808044 C44.10726152 30.54597968 42.21014019 29.55397048 40.3125 28.5625 C38.43930923 27.57522226 36.56721525 26.58589901 34.69554138 25.5957489 C33.47839372 24.95348733 32.2596985 24.31414961 31.03944397 23.67781067 C27.67528906 21.91829724 24.41562939 20.04821477 21.171875 18.078125 C16.79842202 15.62628683 12.88991915 15.22656378 7.9375 15.1875 C7.16728516 15.16236328 6.39707031 15.13722656 5.60351562 15.11132812 C3.73620875 15.05333723 1.86805817 15.02359201 0 15 C0 10.05 0 5.1 0 0 Z " fill="#FCFDFE" transform="translate(189,271)"/>
<path d="M0 0 C19.8 0 39.6 0 60 0 C58.02 4.62 56.04 9.24 54 14 C52.51342633 17.71304726 52.51342633 17.71304726 51.03710938 21.43017578 C48.86801096 26.80492388 46.54427377 32.11530992 44.25 37.4375 C39.44738968 48.60310615 34.69447419 59.78849106 30 71 C27.54574169 68.54574169 26.93335535 66.44961624 25.75 63.1875 C24.10636988 58.80765325 22.37843675 54.53940412 20.375 50.3125 C16.18529339 41.412087 12.44722705 32.3174464 8.63671875 23.25 C7.09958513 19.59375918 5.55016825 15.94469022 3.95703125 12.3125 C3.67214844 11.66144287 3.38726562 11.01038574 3.09375 10.33959961 C2.3751758 8.70506785 1.65075572 7.07310934 0.92578125 5.44140625 C0 3 0 3 0 0 Z " fill="#F9FCFD" transform="translate(137,400)"/>
<path d="M0 0 C-1.61029093 4.09892237 -4.57816083 6.76205641 -7.6875 9.75 C-11.74573622 13.72154492 -15.61100005 17.74723363 -19.29296875 22.07421875 C-21.990997 25.11798975 -24.91797733 27.9258425 -27.8125 30.78125 C-29.79720342 32.79430632 -31.66096916 34.85446403 -33.5 37 C-36.75164628 40.79358733 -40.25713094 44.27392647 -43.8125 47.78125 C-45.79720342 49.79430632 -47.66096916 51.85446403 -49.5 54 C-52.04691608 56.97140209 -54.71378859 59.7514401 -57.5 62.5 C-60.26560408 65.22829407 -62.91287031 67.98516834 -65.4375 70.9375 C-68.97292206 75.06627961 -72.82240227 78.83828761 -76.6875 82.65625 C-79.31424464 85.31849119 -81.68431877 88.06680377 -84 91 C-85 89 -85 89 -84.47436523 87.23510742 C-84.17216064 86.53232666 -83.86995605 85.8295459 -83.55859375 85.10546875 C-83.05295898 83.91727539 -83.05295898 83.91727539 -82.53710938 82.70507812 C-82.17423828 81.87427734 -81.81136719 81.04347656 -81.4375 80.1875 C-81.10169922 79.39923828 -80.76589844 78.61097656 -80.41992188 77.79882812 C-78.40620419 73.10765341 -76.2959986 68.4675053 -74.140625 63.83984375 C-71.90298867 59.01685665 -69.75767317 54.16484902 -67.67578125 49.2734375 C-67.39915146 48.62512466 -67.12252167 47.97681183 -66.83750916 47.30885315 C-65.70432632 44.65090448 -64.57257542 41.9924304 -63.45092773 39.32958984 C-62.61572674 37.34969594 -61.77153413 35.37384249 -60.92578125 33.3984375 C-60.18968628 31.66086182 -60.18968628 31.66086182 -59.4387207 29.88818359 C-56.73650954 24.46358525 -53.086481 22.89834423 -47.68359375 20.48828125 C-46.95869751 20.15853806 -46.23380127 19.82879486 -45.48693848 19.48905945 C-43.14007704 18.42354463 -40.78897652 17.3677857 -38.4375 16.3125 C-36.83579754 15.58838002 -35.23431627 14.86377057 -33.63305664 14.13867188 C-29.77019222 12.39143055 -25.90377647 10.65221976 -22.03613281 8.91558838 C-19.27137525 7.67235912 -16.51071286 6.42014923 -13.75 5.16796875 C-12.14615468 4.44459958 -10.54202702 3.72185579 -8.9375 3 C-8.23230225 2.68071533 -7.52710449 2.36143066 -6.80053711 2.0324707 C-2.23467183 0 -2.23467183 0 0 0 Z " fill="#FAFCFD" transform="translate(262,374)"/>
<path d="M0 0 C5.20691059 2.22231238 10.39847819 4.47654614 15.578125 6.76171875 C20.2788757 8.8321019 24.99984224 10.83492601 29.74946594 12.79031372 C32.91448784 14.1036037 36.06264349 15.45463098 39.20907593 16.81176758 C40.76551193 17.47360154 42.32857641 18.12007968 43.89810181 18.75024414 C58.05488461 24.4534359 58.05488461 24.4534359 61.8125 32.48828125 C62.58660421 34.64323681 63.32048608 36.81337437 64 39 C64.60812399 40.493416 65.22962958 41.98153565 65.87109375 43.4609375 C66.3952408 44.76481815 66.91739206 46.06950293 67.4375 47.375 C69.64401133 52.8272501 71.96987904 58.19028956 74.5 63.5 C79.09760119 73.15262342 83.04042357 83.07208641 87 93 C83.06289661 90.13665208 80.08864439 86.88104201 76.953125 83.20703125 C74.88710351 80.87242697 72.72113836 78.68714135 70.5 76.5 C67.04951094 73.09629724 63.83362606 69.57561011 60.6796875 65.8984375 C59.01795424 64.02029247 57.28874475 62.25694484 55.5 60.5 C53.08667283 58.12957643 50.82728147 55.69263692 48.625 53.125 C46.03365795 50.1153247 43.32745217 47.28911384 40.5 44.5 C37.75499458 41.79196435 35.1272909 39.05830751 32.625 36.125 C29.29685865 32.23958847 25.69264303 28.66302773 22.05395508 25.07348633 C18.76591568 21.81263486 15.69657156 18.43336452 12.69140625 14.9140625 C9.11368321 10.86536899 5.23001601 7.06427158 1.265625 3.39453125 C0 2 0 2 0 0 Z " fill="#FBFCFD" transform="translate(70,373)"/>
<path d="M0 0 C15.75192459 0 15.75192459 0 20.5546875 2.66796875 C22.12476563 3.51391602 22.12476563 3.51391602 23.7265625 4.37695312 C24.76554687 4.97443359 25.80453125 5.57191406 26.875 6.1875 C27.9371875 6.76564453 28.999375 7.34378906 30.09375 7.93945312 C35.85392625 11.10183276 41.4654931 14.4592492 47 18 C45.73634915 20.71333816 44.38856385 22.9155757 42.42578125 25.171875 C41.92240234 25.75453125 41.41902344 26.3371875 40.90039062 26.9375 C40.11438477 27.8346875 40.11438477 27.8346875 39.3125 28.75 C38.80783203 29.33265625 38.30316406 29.9153125 37.78320312 30.515625 C36.7398191 31.71861645 35.68813627 32.91445279 34.62890625 34.10351562 C33.51023953 35.40594414 32.44142338 36.75235443 31.41796875 38.13085938 C26.83143399 44.07053057 22.64101078 45.6465274 15.375 47 C14.446875 47.20238281 13.51875 47.40476562 12.5625 47.61328125 C8.19849956 48.53234724 4.50809867 49 0 49 C0 32.83 0 16.66 0 0 Z " fill="#FDFDFE" transform="translate(189,293)"/>
<path d="M0 0 C24.42 0 48.84 0 74 0 C74 4.95 74 9.9 74 15 C72.49397217 14.9779248 70.98794434 14.95584961 69.4362793 14.93310547 C63.75701905 14.86348377 58.07926602 14.86138751 52.3996582 14.87792969 C49.95882298 14.87600335 47.5179282 14.85665005 45.07739258 14.81835938 C28.98058456 14.58042668 17.06944782 15.95068466 3.53181458 25.09988403 C2 26 2 26 0 26 C0 17.42 0 8.84 0 0 Z " fill="#FCFDFD" transform="translate(107,271)"/>
<path d="M0 0 C5.859375 20.5078125 5.859375 20.5078125 6.91992188 24.23144531 C7.65792441 26.80644693 8.40273538 29.37841338 9.15820312 31.94824219 C9.70637695 33.82624512 9.70637695 33.82624512 10.265625 35.7421875 C10.59852539 36.87253418 10.93142578 38.00288086 11.27441406 39.16748047 C12 42 12 42 12 45 C7.43525256 43.56476499 3.1019464 41.78546544 -1.25 39.8125 C-2.81479246 39.10998237 -4.37993028 38.40823376 -5.9453125 37.70703125 C-6.86086914 37.29662598 -7.77642578 36.8862207 -8.71972656 36.46337891 C-15.05993683 33.63491654 -21.41470017 30.83929746 -27.76745605 28.03915405 C-30.1188597 27.00270651 -32.47009917 25.96588742 -34.82128906 24.92895508 C-38.5474014 23.28568723 -42.27365824 21.64274753 -46 20 C-46 19.34 -46 18.68 -46 18 C-41.93906781 16.26713553 -37.87596452 14.539417 -33.8125 12.8125 C-32.68134766 12.32974609 -31.55019531 11.84699219 -30.38476562 11.34960938 C-23.55603048 8.45080158 -16.69501095 5.69016166 -9.7487793 3.0847168 C-7.05479744 2.07784265 -7.05479744 2.07784265 -4.81958008 0.85864258 C-3 0 -3 0 0 0 Z " fill="#F8FBFC" transform="translate(113,345)"/>
<path d="M0 0 C3.93629551 0.65340785 7.3588575 1.84146539 11.04296875 3.36328125 C12.19990234 3.83830078 13.35683594 4.31332031 14.54882812 4.80273438 C15.74958984 5.30095703 16.95035156 5.79917969 18.1875 6.3125 C20.55588253 7.28802036 22.92437047 8.26328484 25.29296875 9.23828125 C26.42653809 9.71217285 27.56010742 10.18606445 28.72802734 10.67431641 C30.81891634 11.52146812 32.92818285 12.3254051 35.05712891 13.07177734 C35.96253418 13.39227051 36.86793945 13.71276367 37.80078125 14.04296875 C38.59266846 14.30489014 39.38455566 14.56681152 40.20043945 14.83666992 C42 16 42 16 42.76245117 18.62231445 C42.88003784 19.7992688 42.88003784 19.7992688 43 21 C32.29643234 26.0398871 21.53926011 30.95339023 10.74291992 35.79125977 C8.14409237 36.9569706 5.547661 38.12791957 2.95117188 39.29882812 C1.29441502 40.04198819 -0.36248065 40.7848389 -2.01953125 41.52734375 C-3.18026909 42.05218605 -3.18026909 42.05218605 -4.36445618 42.58763123 C-9.77151864 45 -9.77151864 45 -12 45 C-9.76517469 34.85126388 -7.17804417 24.88396067 -4.10693359 14.95410156 C-2.57671526 9.99882029 -1.21306698 5.04289273 0 0 Z " fill="#FBFCFD" transform="translate(220,345)"/>
<path d="M0 0 C3.18589529 3.18589529 5.83796782 5.90513563 8.49609375 9.4140625 C9.13063477 10.24873047 9.76517578 11.08339844 10.41894531 11.94335938 C11.08506836 12.82830078 11.75119141 13.71324219 12.4375 14.625 C13.13327148 15.54345703 13.82904297 16.46191406 14.54589844 17.40820312 C19.91813842 24.51758919 25.22357285 31.67582778 30.48217773 38.86962891 C31.01915283 39.60358887 31.55612793 40.33754883 32.109375 41.09375 C32.60630859 41.77308594 33.10324219 42.45242187 33.61523438 43.15234375 C34.82882328 44.77160342 36.10511619 46.34347459 37.390625 47.90625 C39 50 39 50 39 52 C26.13 52 13.26 52 0 52 C0 34.84 0 17.68 0 0 Z " fill="#FCFDFD" transform="translate(271,211)"/>
<path d="M0 0 C14.52 0 29.04 0 44 0 C44 8.91 44 17.82 44 27 C33.11 27 22.22 27 11 27 C4.14634146 13.29268293 4.14634146 13.29268293 2.125 8.4375 C1.71507812 7.46683594 1.30515625 6.49617188 0.8828125 5.49609375 C0 3 0 3 0 0 Z " fill="#FCFDFD" transform="translate(137,400)"/>
<path d="M0 0 C3.4935056 3.40663335 6.70456632 6.92685004 9.8125 10.6875 C10.45771606 11.46806763 10.45771606 11.46806763 11.1159668 12.2644043 C28 32.7417141 28 32.7417141 28 35 C9.85 35 -8.3 35 -27 35 C-24.12752204 30.69128306 -21.21124099 26.60205346 -18 22.5625 C-17.53231201 21.97065918 -17.06462402 21.37881836 -16.58276367 20.76904297 C-11.08510522 13.82224136 -5.5447827 6.90920567 0 0 Z " fill="#FBFCFD" transform="translate(166,358)"/>
<path d="M0 0 C12.21 0 24.42 0 37 0 C37 16.5 37 33 37 50 C33.81410471 46.81410471 31.16203218 44.09486437 28.50390625 40.5859375 C27.8692041 39.75126953 27.23450195 38.91660156 26.58056641 38.05664062 C25.58162354 36.72922852 25.58162354 36.72922852 24.5625 35.375 C23.86817871 34.45654297 23.17385742 33.53808594 22.45849609 32.59179688 C20.30062178 29.73162098 18.14988372 26.86618522 16 24 C15.31437988 23.09024414 14.62875977 22.18048828 13.92236328 21.24316406 C11.98305962 18.66715139 10.05239006 16.08493432 8.125 13.5 C7.2424353 12.32703369 7.2424353 12.32703369 6.34204102 11.13037109 C5.79862061 10.39641113 5.2552002 9.66245117 4.6953125 8.90625 C4.22109863 8.27009766 3.74688477 7.63394531 3.25830078 6.97851562 C2 5 2 5 0 0 Z " fill="#FBFDFD" transform="translate(472,435)"/>
<path d="M0 0 C3.4217041 1.42361853 5.08040466 3.05007298 7.2421875 6.03515625 C7.83386719 6.84533203 8.42554688 7.65550781 9.03515625 8.49023438 C9.64230469 9.33908203 10.24945313 10.18792969 10.875 11.0625 C11.47441406 11.88427734 12.07382813 12.70605469 12.69140625 13.55273438 C16.60897039 18.95319427 20.29241737 24.43862605 24 30 C5.52 30 -12.96 30 -32 30 C-30.35 28.35 -28.7 26.7 -27 25 C-26.20980469 24.19820312 -25.41960937 23.39640625 -24.60546875 22.5703125 C-20.20978674 18.12492165 -15.77496532 13.80628419 -11.02734375 9.73828125 C-8.65925551 7.7078395 -6.32922935 5.63736733 -4 3.5625 C-3.236875 2.88316406 -2.47375 2.20382813 -1.6875 1.50390625 C-1.130625 1.00761719 -0.57375 0.51132813 0 0 Z " fill="#FAFCFD" transform="translate(231,159)"/>
<path d="M0 0 C1.18996784 3.56990352 0.71950844 4.86863066 -0.2578125 8.453125 C-0.55163818 9.54125488 -0.84546387 10.62938477 -1.14819336 11.75048828 C-1.47053955 12.90532715 -1.79288574 14.06016602 -2.125 15.25 C-2.6056189 17.00352783 -2.6056189 17.00352783 -3.09594727 18.79248047 C-5.45426789 27.29703077 -8.02460009 35.69081868 -11 44 C-19.02032059 36.14942165 -25.86190898 27.30759321 -32.625 18.375 C-33.42466187 17.32638794 -33.42466187 17.32638794 -34.24047852 16.2565918 C-38 11.23957307 -38 11.23957307 -38 9 C-25.46 6.03 -12.92 3.06 0 0 Z " fill="#FBFCFD" transform="translate(212,344)"/>
<path d="M0 0 C12.87 2.97 25.74 5.94 39 9 C38.08174739 12.67301044 37.68430464 13.72502717 35.41015625 16.43359375 C34.8776123 17.07659424 34.34506836 17.71959473 33.79638672 18.38208008 C33.2242041 19.06036865 32.65202148 19.73865723 32.0625 20.4375 C30.8774361 21.86596914 29.69386159 23.29567508 28.51171875 24.7265625 C27.92052246 25.44102539 27.32932617 26.15548828 26.72021484 26.89160156 C23.37934095 30.98637689 20.20825284 35.20933968 17.0234375 39.42578125 C15.4281834 41.45526475 13.83905413 43.20703663 12 45 C6.140625 24.4921875 6.140625 24.4921875 5.08007812 20.76855469 C4.34207559 18.19355307 3.59726462 15.62158662 2.84179688 13.05175781 C2.47634766 11.79975586 2.11089844 10.54775391 1.734375 9.2578125 C1.40147461 8.12746582 1.06857422 6.99711914 0.72558594 5.83251953 C0 3 0 3 0 0 Z " fill="#FBFCFD" transform="translate(120,344)"/>
<path d="M0 0 C0.66 0 1.32 0 2 0 C2 13.53 2 27.06 2 41 C-10.87 41 -23.74 41 -37 41 C-28.82956257 31.467823 -20.40654077 22.25169637 -11.76025391 13.15283203 C-8.6173789 9.83419654 -5.55452606 6.49970345 -2.63671875 2.98046875 C-1.76660156 1.99691406 -0.89648438 1.01335937 0 0 Z " fill="#FCFDFD" transform="translate(261,386)"/>
<path d="M0 0 C15.18 0 30.36 0 46 0 C40.40659421 6.71208695 40.40659421 6.71208695 37.21875 9.37890625 C32.85444334 13.10435881 28.67303344 17.00016567 24.5 20.9375 C23.77296875 21.62134766 23.0459375 22.30519531 22.296875 23.00976562 C20.53008286 24.67194507 18.76447952 26.33536639 17 28 C13.09478312 26.69826104 12.80550188 25.33848318 10.8984375 21.7578125 C10.32609375 20.69175781 9.75375 19.62570313 9.1640625 18.52734375 C8.57367188 17.40457031 7.98328125 16.28179687 7.375 15.125 C6.776875 14.00996094 6.17875 12.89492187 5.5625 11.74609375 C1.16792945 3.50378836 1.16792945 3.50378836 0 0 Z " fill="#FAFCFD" transform="translate(124,181)"/>
<path d="M0 0 C0.66 0 1.32 0 2 0 C3.75471569 2.48889361 5.39118072 4.9810864 7 7.5625 C7.9885854 9.12172691 8.97819054 10.68030769 9.96875 12.23828125 C10.72285156 13.4286499 10.72285156 13.4286499 11.4921875 14.64306641 C14.17440155 18.83576304 16.95758088 22.9603956 19.73828125 27.08813477 C24.59635371 34.32548477 24.59635371 34.32548477 26 37 C25.505 37.99 25.505 37.99 25 39 C21.0895982 37.38276844 17.17928373 35.76532595 13.26904297 34.14770508 C11.94452148 33.59979843 10.61997796 33.05194505 9.29541016 32.50415039 C0.85852591 29.01490069 -7.57444763 25.51655534 -16 22 C-15.40573489 18.70551733 -14.350666 16.91569738 -12.12890625 14.43359375 C-11.26749023 13.4580957 -11.26749023 13.4580957 -10.38867188 12.46289062 C-9.4847168 11.46032227 -9.4847168 11.46032227 -8.5625 10.4375 C-7.37487294 9.10413615 -6.18861962 7.76954713 -5.00390625 6.43359375 C-4.47611572 5.84634521 -3.9483252 5.25909668 -3.40454102 4.65405273 C-1.81164821 2.84285577 -1.81164821 2.84285577 0 0 Z " fill="#FAFCFD" transform="translate(241,317)"/>
<path d="M0 0 C4.15689022 4.04729236 8.0052118 8.31145303 11.8125 12.6875 C12.7087207 13.70166992 12.7087207 13.70166992 13.62304688 14.73632812 C14.18701172 15.38408203 14.75097656 16.03183594 15.33203125 16.69921875 C15.84483643 17.28533936 16.3576416 17.87145996 16.88598633 18.4753418 C18 20 18 20 18 22 C16.19982422 22.70962891 16.19982422 22.70962891 14.36328125 23.43359375 C4.04254716 27.52258623 -6.20413192 31.74268576 -16.36987305 36.20483398 C-17.20945557 36.57036377 -18.04903809 36.93589355 -18.9140625 37.3125 C-20.0270874 37.80169922 -20.0270874 37.80169922 -21.16259766 38.30078125 C-23 39 -23 39 -25 39 C-23.52830724 34.86322107 -21.48653143 31.49187625 -19.04296875 27.8515625 C-18.6581282 27.27594574 -18.27328766 26.70032898 -17.87678528 26.10726929 C-16.65132847 24.27691622 -15.41940846 22.4510152 -14.1875 20.625 C-13.3713441 19.40651829 -12.55558519 18.18777058 -11.74023438 16.96875 C-7.90955567 11.25233781 -4.04738322 5.56617814 0 0 Z " fill="#FBFCFD" transform="translate(91,317)"/>
<path d="M0 0 C3.01695277 3.01695277 4.5852582 5.59449544 6.6171875 9.3203125 C6.95622101 9.9384079 7.29525452 10.5565033 7.64456177 11.19332886 C8.72626574 13.16792408 9.800769 15.14633114 10.875 17.125 C11.5893608 18.43255564 12.30420001 19.73985002 13.01953125 21.046875 C14.06205726 22.95206072 15.10356092 24.8577534 16.14105225 26.76568604 C18.44017223 30.99331864 20.78864489 35.18962022 23.19189453 39.35888672 C24 41 24 41 24 43 C16.08 43 8.16 43 0 43 C0 28.81 0 14.62 0 0 Z " fill="#FBFCFD" transform="translate(25,56)"/>
<path d="M0 0 C5.28 0 10.56 0 16 0 C15.0925 2.10375 14.185 4.2075 13.25 6.375 C11.43130212 10.60671587 9.6373949 14.84378322 7.9375 19.125 C5.69127493 24.77679212 3.33915353 30.38603153 1 36 C-9.23 36 -19.46 36 -30 36 C-30.99 33.03 -31.98 30.06 -33 27 C-22.11 27 -11.22 27 0 27 C0 18.09 0 9.18 0 0 Z " fill="#AFBDC5" transform="translate(181,400)"/>
<path d="M0 0 C0 8.25 0 16.5 0 25 C-10.125 21.625 -10.125 21.625 -14.91015625 19.51953125 C-15.91884766 19.07802734 -16.92753906 18.63652344 -17.96679688 18.18164062 C-18.98837891 17.72982422 -20.00996094 17.27800781 -21.0625 16.8125 C-22.11888672 16.34908203 -23.17527344 15.88566406 -24.26367188 15.40820312 C-26.84401964 14.2756523 -29.42272601 13.13952397 -32 12 C-32 11.34 -32 10.68 -32 10 C-28.36645408 8.305577 -24.71651187 6.64976741 -21.0625 5 C-20.04091797 4.52304687 -19.01933594 4.04609375 -17.96679688 3.5546875 C-16.95810547 3.10351562 -15.94941406 2.65234375 -14.91015625 2.1875 C-13.99371338 1.76855469 -13.07727051 1.34960938 -12.13305664 0.91796875 C-9 0 -9 0 0 0 Z " fill="#FAFCFD" transform="translate(99,353)"/>
<path d="M0 0 C12.51269778 5.34433525 24.91004811 10.75126082 37 17 C37 24.59 37 32.18 37 40 C35.35 38.35 33.7 36.7 32 35 C30.89927818 33.90930718 29.79781254 32.81936406 28.6953125 31.73046875 C23.14772967 26.23221147 17.63886496 20.77207413 12.5859375 14.80859375 C9.05787886 10.78521654 5.19174547 7.02884547 1.265625 3.39453125 C0 2 0 2 0 0 Z " fill="#F5FAFC" transform="translate(70,373)"/>
<path d="M0 0 C2.64 0 5.28 0 8 0 C8 16.17 8 32.34 8 49 C8.66 49.33 9.32 49.66 10 50 C6.7 50.66 3.4 51.32 0 52 C0 34.84 0 17.68 0 0 Z " fill="#AFBEC5" transform="translate(181,293)"/>
<path d="M0 0 C6.6 0.33 13.2 0.66 20 1 C13.3360161 8.77464789 13.3360161 8.77464789 10.5625 11.4375 C8.14893446 13.80890719 5.88687577 16.24139875 3.6875 18.8125 C0.10447269 22.97787035 -3.78052487 26.79692091 -7.6875 30.65625 C-10.31424464 33.31849119 -12.68431877 36.06680377 -15 39 C-16 37 -16 37 -15.47436523 35.23510742 C-15.17216064 34.53232666 -14.86995605 33.8295459 -14.55859375 33.10546875 C-14.2248877 32.32059082 -13.89118164 31.53571289 -13.54736328 30.72705078 C-13.1811084 29.88899902 -12.81485352 29.05094727 -12.4375 28.1875 C-12.07124512 27.33397949 -11.70499023 26.48045898 -11.32763672 25.60107422 C-8.72745848 19.57477876 -6.02953961 13.59885761 -3.2265625 7.6640625 C-2.06733616 5.14625242 -1.02944064 2.57360161 0 0 Z " fill="#F6F9FB" transform="translate(193,426)"/>
<path d="M0 0 C6.27 0 12.54 0 19 0 C21.39275362 4.78550723 23.66487777 9.39150967 25.7265625 14.29296875 C26.2009375 15.41767578 26.6753125 16.54238281 27.1640625 17.70117188 C27.64617187 18.85166016 28.12828125 20.00214844 28.625 21.1875 C29.11484375 22.34958984 29.6046875 23.51167969 30.109375 24.70898438 C32.10882113 29.45903469 34.0984009 34.20979176 36 39 C32.06289661 36.13665208 29.08864439 32.88104201 25.953125 29.20703125 C23.88710351 26.87242697 21.72113836 24.68714135 19.5 22.5 C16.05657717 19.10326765 12.84351948 15.59399126 9.703125 11.91796875 C7.39528016 9.31899669 4.90933622 6.92787118 2.3828125 4.54296875 C1 3 1 3 0 0 Z " fill="#F2F8FB" transform="translate(121,427)"/>
<path d="M0 0 C0.84452728 -0.02559494 1.68905457 -0.05118988 2.55917358 -0.07756042 C3.46857697 -0.087173 4.37798035 -0.09678558 5.31494141 -0.10668945 C6.25326813 -0.121418 7.19159485 -0.13614655 8.15835571 -0.15132141 C10.14373627 -0.17527582 12.12923538 -0.19069455 14.11474609 -0.19824219 C17.1496807 -0.21985092 20.17955707 -0.30002496 23.21337891 -0.38208008 C25.14303976 -0.39807495 27.07273355 -0.4105602 29.00244141 -0.41918945 C29.90779633 -0.45106857 30.81315125 -0.48294769 31.74594116 -0.51579285 C34.32421875 -0.48828125 34.32421875 -0.48828125 38.79150391 0.4675293 C41.26650391 4.4275293 41.26650391 4.4275293 43.79150391 8.4675293 C25.31150391 8.4675293 6.83150391 8.4675293 -12.20849609 8.4675293 C-10.55849609 6.8175293 -8.90849609 5.1675293 -7.20849609 3.4675293 C-6.69717133 2.87904709 -6.18584656 2.29056488 -5.6590271 1.68424988 C-3.72744793 0.06402106 -2.50157529 0.05887917 0 0 Z " fill="#AFBDC5" transform="translate(211.20849609375,180.532470703125)"/>
<path d="M0 0 C15.18 0 30.36 0 46 0 C38.63723491 8.8353181 38.63723491 8.8353181 33.58007812 9.34399414 C32.2303275 9.34215716 30.88051322 9.3214727 29.53125 9.28515625 C28.4552655 9.26683998 28.4552655 9.26683998 27.35754395 9.24815369 C25.84445247 9.21647835 24.33151547 9.17646615 22.81884766 9.12866211 C20.50748079 9.06271344 18.19890547 9.04479674 15.88671875 9.02929688 C14.41398627 8.99251862 12.94132142 8.95289985 11.46875 8.91015625 C10.78010864 8.90983902 10.09146729 8.90952179 9.38195801 8.90919495 C7.41992188 8.82055664 7.41992188 8.82055664 4 8 C0 3.24584323 0 3.24584323 0 0 Z " fill="#AEBDC5" transform="translate(124,181)"/>
<path d="M0 0 C1.41687119 4.25061356 0.19320039 6.71851625 -1 11 C-1.495 10.01 -1.495 10.01 -2 9 C-8.93 9 -15.86 9 -23 9 C-23 15.6 -23 22.2 -23 29 C-26.8249572 25.1750428 -30.06555699 21.55998249 -33.3125 17.3125 C-33.76689453 16.73177734 -34.22128906 16.15105469 -34.68945312 15.55273438 C-38 11.2465343 -38 11.2465343 -38 9 C-25.46 6.03 -12.92 3.06 0 0 Z " fill="#AABCC6" transform="translate(212,344)"/>
<path d="M0 0 C0.66 2.64 1.32 5.28 2 8 C-0.64 8 -3.28 8 -6 8 C-6 17.57 -6 27.14 -6 37 C-8.97 36.01 -11.94 35.02 -15 34 C-14.67 25.42 -14.34 16.84 -14 8 C-15.98 8 -17.96 8 -20 8 C-16.80319607 5.86879738 -13.51404109 4.37998891 -10 2.875 C-9.3709375 2.59785156 -8.741875 2.32070313 -8.09375 2.03515625 C-5.2216304 0.79990142 -3.16054884 0 0 0 Z " fill="#ADBDC5" transform="translate(113,345)"/>
<path d="M0 0 C3.26637962 3.26637962 5.88747003 5.98068526 8.55078125 9.609375 C9.16630859 10.44597656 9.78183594 11.28257812 10.41601562 12.14453125 C11.04185547 13.00433594 11.66769531 13.86414063 12.3125 14.75 C13.28026367 16.06291016 13.28026367 16.06291016 14.26757812 17.40234375 C19 23.8624752 19 23.8624752 19 25 C12.73 25 6.46 25 0 25 C0 16.75 0 8.5 0 0 Z " fill="#F8FBFD" transform="translate(353,320)"/>
<path d="M0 0 C5.28 0 10.56 0 16 0 C16 9.24 16 18.48 16 28 C13.25476843 25.25476843 11.74960321 23.08113396 9.86328125 19.74609375 C9.28642578 18.72708984 8.70957031 17.70808594 8.11523438 16.65820312 C7.52033203 15.59537109 6.92542969 14.53253906 6.3125 13.4375 C5.70599609 12.37080078 5.09949219 11.30410156 4.47460938 10.20507812 C0 2.25748735 0 2.25748735 0 0 Z " fill="#F9FBFD" transform="translate(83,107)"/>
<path d="M0 0 C5.61 0 11.22 0 17 0 C17 7.26 17 14.52 17 22 C11.36931534 16.36931534 11.36931534 16.36931534 8.88671875 13.046875 C8.0987793 11.995 8.0987793 11.995 7.29492188 10.921875 C6.76447266 10.20515625 6.23402344 9.4884375 5.6875 8.75 C4.86282227 7.65171875 4.86282227 7.65171875 4.02148438 6.53125 C0 1.13596661 0 1.13596661 0 0 Z " fill="#F9FBFC" transform="translate(410,353)"/>
<path d="M0 0 C3.37462715 0.54723683 5.08235 1.0549 8 3 C8.34057617 5.33837891 8.34057617 5.33837891 8.29296875 8.2265625 C8.28330078 9.2578125 8.27363281 10.2890625 8.26367188 11.3515625 C8.23853516 12.43179687 8.21339844 13.51203125 8.1875 14.625 C8.17396484 15.71296875 8.16042969 16.8009375 8.14648438 17.921875 C8.11104754 20.61507409 8.06164331 23.30729374 8 26 C6.33333333 24.33333333 4.66666667 22.66666667 3 21 C2.45561279 20.53682373 1.91122559 20.07364746 1.3503418 19.59643555 C-0.39159713 17.53703605 -0.34972699 16.43716865 -0.29296875 13.76953125 C-0.28330078 12.96708984 -0.27363281 12.16464844 -0.26367188 11.33789062 C-0.23853516 10.50451172 -0.21339844 9.67113281 -0.1875 8.8125 C-0.17396484 7.96751953 -0.16042969 7.12253906 -0.14648438 6.25195312 C-0.11115799 4.16769616 -0.05735139 2.08376723 0 0 Z " fill="#AEBDC5" transform="translate(99,387)"/>
<path d="M0 0 C16.83 3.96 16.83 3.96 34 8 C34 8.33 34 8.66 34 9 C23.77 9 13.54 9 3 9 C2.67 9.66 2.34 10.32 2 11 C1.34 7.37 0.68 3.74 0 0 Z " fill="#AABCC6" transform="translate(120,344)"/>
<path d="M0 0 C6.6 0.33 13.2 0.66 20 1 C14 8 14 8 13 9 C10.30345146 9.07319621 7.63308542 9.09242537 4.9375 9.0625 C3.79958008 9.05573242 3.79958008 9.05573242 2.63867188 9.04882812 C0.75908129 9.0370068 -1.12046899 9.01907078 -3 9 C-2.01 6.03 -1.02 3.06 0 0 Z " fill="#ACBDC5" transform="translate(193,426)"/>
<path d="M0 0 C6.27 0 12.54 0 19 0 C22 6 22 6 22 8 C7.68612387 9.07099073 7.68612387 9.07099073 3.6015625 6.4765625 C0 2.1722561 0 2.1722561 0 0 Z " fill="#ACBDC5" transform="translate(121,427)"/>
<path d="M0 0 C0.33 0 0.66 0 1 0 C1 16.83 1 33.66 1 51 C-11.61607082 54.44074659 -17.80034339 54.08201851 -30 51 C-30 50.67 -30 50.34 -30 50 C-20.1 50 -10.2 50 0 50 C0 33.5 0 17 0 0 Z " fill="#EFF3F6" transform="translate(180,294)"/>
<path d="M0 0 C0.49628906 0.88429688 0.99257813 1.76859375 1.50390625 2.6796875 C2.40109375 4.01 2.40109375 4.01 3.31640625 5.3671875 C3.70828125 6.1303125 4.10015625 6.8934375 4.50390625 7.6796875 C4.17390625 8.3396875 3.84390625 8.9996875 3.50390625 9.6796875 C-4.74609375 6.3796875 -12.99609375 3.0796875 -21.49609375 -0.3203125 C-21.49609375 -0.6503125 -21.49609375 -0.9803125 -21.49609375 -1.3203125 C-18.41555435 -1.63400485 -15.33286021 -1.88864882 -12.24609375 -2.1328125 C-11.37339844 -2.22240234 -10.50070313 -2.31199219 -9.6015625 -2.40429688 C-3.09410645 -2.87621163 -3.09410645 -2.87621163 0 0 Z " fill="#A8BCC6" transform="translate(262.49609375,346.3203125)"/>
<path d="M0 0 C3.01344478 3.01344478 5.93496621 5.94874506 8.75 9.125 C9.34296875 9.78757812 9.9359375 10.45015625 10.546875 11.1328125 C12 13 12 13 13 16 C8.71 16 4.42 16 0 16 C0 10.72 0 5.44 0 0 Z " fill="#A9BCC5" transform="translate(181,377)"/>
<path d="M0 0 C2.5716638 -0.10753856 5.07405413 -0.03913473 7.64355469 0.10888672 C8.53171875 0.13595703 9.41988281 0.16302734 10.33496094 0.19091797 C12.52363864 0.26152048 14.70735037 0.36003145 16.89355469 0.48388672 C14.18129936 2.647609 11.61376902 4.1872634 8.41699219 5.52685547 C7.58167969 5.878125 6.74636719 6.22939453 5.88574219 6.59130859 C5.02207031 6.94773437 4.15839844 7.30416016 3.26855469 7.67138672 C2.39714844 8.03941406 1.52574219 8.40744141 0.62792969 8.78662109 C-5.83750109 11.48388672 -5.83750109 11.48388672 -8.10644531 11.48388672 C-4.41093249 1.01326706 -4.41093249 1.01326706 0 0 Z " fill="#AFC0C9" transform="translate(74.1064453125,344.51611328125)"/>
<path d="M0 0 C0.33 0 0.66 0 1 0 C2.78126922 14.17818331 2.78126922 14.17818331 -1.44921875 19.734375 C-4.09199021 22.72861812 -6.96993948 25.40280527 -10 28 C-11 26 -11 26 -10.42675781 24.13989258 C-10.10545898 23.39892334 -9.78416016 22.6579541 -9.453125 21.89453125 C-9.1025 21.07533203 -8.751875 20.25613281 -8.390625 19.41210938 C-8.01421875 18.55423828 -7.6378125 17.69636719 -7.25 16.8125 C-6.8890625 15.97396484 -6.528125 15.13542969 -6.15625 14.27148438 C-5.44536965 12.62177835 -4.73124811 10.9734647 -4.01367188 9.32666016 C-2.661786 6.22370438 -1.33073803 3.11207405 0 0 Z " fill="#AEC2CD" transform="translate(188,437)"/>
<path d="M0 0 C4.56736441 0.70062483 8.5699505 2.31270207 12.8125 4.0625 C13.50537109 4.34416016 14.19824219 4.62582031 14.91210938 4.91601562 C16.60967624 5.60674973 18.30506312 6.30283728 20 7 C20 7.33 20 7.66 20 8 C13.07 8 6.14 8 -1 8 C-0.67 5.36 -0.34 2.72 0 0 Z " fill="#AABCC5" transform="translate(220,345)"/>
<path d="M0 0 C0 5.61 0 11.22 0 17 C-3.62819486 13.37180514 -6.79441627 9.93828859 -10 6 C-7.662253 3.2726285 -3.76117701 0 0 0 Z " fill="#ADBEC7" transform="translate(107,306)"/>
<path d="M0 0 C4.20894474 3.36715579 6.83433482 5.83941148 10 10 C10 10.66 10 11.32 10 12 C5.05 13.485 5.05 13.485 0 15 C0 10.05 0 5.1 0 0 Z " fill="#AEBFC7" transform="translate(99,327)"/>
<path d="M0 0 C2.64 0 5.28 0 8 0 C5.69 5.61 3.38 11.22 1 17 C0.67 17 0.34 17 0 17 C0 11.39 0 5.78 0 0 Z " fill="#F5F8FA" transform="translate(189,400)"/>
<path d="M0 0 C7.92 0 15.84 0 24 0 C15.76067196 4.11966402 8.72395291 3.21560709 0 1 C0 0.67 0 0.34 0 0 Z " fill="#A1B9C6" transform="translate(154,345)"/>
<path d="M0 0 C2.31 0 4.62 0 7 0 C7 3.3 7 6.6 7 10 C3.60582235 6.87378374 1.3937282 4.43458973 0 0 Z " fill="#EDF4F9" transform="translate(174,353)"/>
<path d="M0 0 C1.68762851 1.6454378 3.3540349 3.31288577 5 5 C5 5.33 5 5.66 5 6 C3.35 6 1.7 6 0 6 C0 4.02 0 2.04 0 0 Z " fill="#EAF1F6" transform="translate(189,387)"/>
</svg>
